<?xml version="1.0" standalone="no"?><svg xmlns="http://www.w3.org/2000/svg" viewBox="0 0 1440 320">
    <path fill="#E8D5D2" fill-opacity="1" d="M0,128L26.7,149.3C53.3,171,107,213,160,240C213.3,267,267,277,320,256C373.3,235,427,181,480,170.7C533.3,160,587,192,640,218.7C693.3,245,747,267,800,250.7C853.3,235,907,181,960,186.7C1013.3,192,1067,256,1120,245.3C1173.3,235,1227,149,1280,133.3C1333.3,117,1387,171,1413,197.3L1440,224L1440,320L1413.3,320C1386.7,320,1333,320,1280,320C1226.7,320,1173,320,1120,320C1066.7,320,1013,320,960,320C906.7,320,853,320,800,320C746.7,320,693,320,640,320C586.7,320,533,320,480,320C426.7,320,373,320,320,320C266.7,320,213,320,160,320C106.7,320,53,320,27,320L0,320Z"></path></svg>
